<svg viewBox="0 0 64 64" xml:space="preserve" xmlns="http://www.w3.org/2000/svg"><path d="M51 29.997c-4.411 0-8 3.589-8 8v1.461c-1.771-.633-5.197-1.461-11-1.461s-9.228.828-11 1.461v-1.461c0-4.411-3.589-8-8-8-2.757 0-5 2.243-5 5a4.988 4.988 0 0 0 3.079 4.617c.56.235.921.778.921 1.383l1 4c0 3.59 2.719 6.555 6.206 6.952a2.433 2.433 0 0 0 1.045 4.632 2.439 2.439 0 0 0 2.438-2.438 2.43 2.43 0 0 0-1.304-2.146h21.233a2.428 2.428 0 0 0-1.304 2.146 2.439 2.439 0 0 0 4.876 0c0-.97-.572-1.802-1.393-2.194C48.281 51.552 51 48.587 51 44.997l1-4c0-.606.361-1.148.921-1.383A4.987 4.987 0 0 0 56 34.997c0-2.757-2.243-5-5-5z" fill="#ffffff" class="fill-000000"></path><path d="M23.75 35.659c2.081-.38 4.79-.662 8.25-.662s6.169.282 8.25.662c.786-3.62 3.364-6.574 6.751-7.901V22.42c0-8.284-6.716-15-15.001-15-8.284 0-15 6.716-15 15v5.339c3.387 1.327 5.964 4.281 6.75 7.9z" fill="#ffffff" class="fill-000000"></path></svg>