<svg viewBox="0 0 64 64" xml:space="preserve" xmlns="http://www.w3.org/2000/svg"><path d="M58.537 5.386c-.038-.03-1.93-1.409-3.353.411-4.554 5.845-19.681 25.076-27.008 31.884-6.399 5.947-12.023 2.558-14.547.364v.006s-1.294-1.344-4.255-.421l-.014.002c-1.201.395-2.834.899-5.037 1.54-3.122.903-4.092 3.252-4.196 5.499.059.745.427 4.129 2.318 6.382 3.445 3.526 10.175 7.178 17.313 7.941 8.244.875 10.26-2.546 10.26-2.546s5.029-6.802 9.74-13.718c.003-.007.01-.01.014-.017 4.067-5.857 8.879-8.799 8.982-8.863.278-.123.545-.238.802-.333.521-.155 3.339-.817 3.572 3.016l1.197 20.472.007.264v.008l.011.373c.048.546.295 1.49 1.45 1.492 1.08-.021 1.222-1.227 1.232-1.717v-.21c.438-5.343 2.354-25.209 4.127-28.831 6.021-13.786.627-20.45-2.615-22.998z" fill="#ffffff" class="fill-241f20"></path></svg>